<svg xmlns="http://www.w3.org/2000/svg" version="1.1" xmlns:xlink="http://www.w3.org/1999/xlink" xmlns:svgjs="http://svgjs.dev/svgjs" width="2000" height="1080" viewBox="0 0 2000 1080"><g transform="matrix(1,0,0,1,-1.212073181082019,0.20106097690791103)"><svg viewBox="0 0 396 214" data-background-color="#8dbdff" preserveAspectRatio="xMidYMid meet" height="1080" width="2000" xmlns="http://www.w3.org/2000/svg" xmlns:xlink="http://www.w3.org/1999/xlink"><g id="tight-bounds" transform="matrix(1,0,0,1,0.23999051802263693,-0.0398398602391552)"><svg viewBox="0 0 395.52 214.0796797204783" height="214.0796797204783" width="395.52"><g><svg viewBox="0 0 395.52 214.0796797204783" height="214.0796797204783" width="395.52"><g><svg viewBox="0 0 395.52 214.0796797204783" height="214.0796797204783" width="395.52"><g><svg viewBox="0 0 395.52 214.0796797204783" height="214.0796797204783" width="395.52"><g transform="matrix(1,0,0,1,0,128.7661336204066)"><svg viewBox="0 0 395.52 85.3135461000717" height="85.3135461000717" width="395.52"><g id="textblocktransform"><svg viewBox="0 0 395.52 85.3135461000717" height="85.3135461000717" width="395.52" id="textblock"><g><svg viewBox="0 0 395.52 46.01405017921147" height="46.01405017921147" width="395.52"><g transform="matrix(1,0,0,1,0,0)"><svg width="395.52" viewBox="1.850000023841858 -38.5 334.7699890136719 38.95000076293945" height="46.01405017921147" data-palette-color="#001f3f"><path d="M1.85-17.45Q1.85-22.55 4.23-26.6 6.6-30.65 10.68-32.93 14.75-35.2 19.6-35.2L19.6-35.2Q25.15-35.2 29.48-32.48 33.8-29.75 35.75-24.75L35.75-24.75 28.9-24.75Q27.55-27.5 25.15-28.85 22.75-30.2 19.6-30.2L19.6-30.2Q16.15-30.2 13.45-28.65 10.75-27.1 9.22-24.2 7.7-21.3 7.7-17.45L7.7-17.45Q7.7-13.6 9.22-10.7 10.75-7.8 13.45-6.23 16.15-4.65 19.6-4.65L19.6-4.65Q22.75-4.65 25.15-6 27.55-7.35 28.9-10.1L28.9-10.1 35.75-10.1Q33.8-5.1 29.48-2.4 25.15 0.3 19.6 0.3L19.6 0.3Q14.7 0.3 10.65-1.98 6.6-4.25 4.23-8.3 1.85-12.35 1.85-17.45L1.85-17.45ZM56.65-28Q59.8-28 62.27-26.65 64.75-25.3 66.17-22.65 67.6-20 67.6-16.25L67.6-16.25 67.6 0 61.95 0 61.95-15.4Q61.95-19.1 60.1-21.08 58.25-23.05 55.05-23.05L55.05-23.05Q51.85-23.05 49.97-21.08 48.1-19.1 48.1-15.4L48.1-15.4 48.1 0 42.4 0 42.4-37 48.1-37 48.1-24.35Q49.55-26.1 51.77-27.05 54-28 56.65-28L56.65-28ZM72.95-13.9Q72.95-18.05 74.67-21.25 76.4-24.45 79.37-26.23 82.35-28 85.95-28L85.95-28Q89.2-28 91.62-26.73 94.05-25.45 95.5-23.55L95.5-23.55 95.5-27.55 101.25-27.55 101.25 0 95.5 0 95.5-4.1Q94.05-2.15 91.55-0.85 89.05 0.45 85.85 0.45L85.85 0.45Q82.3 0.45 79.35-1.38 76.4-3.2 74.67-6.48 72.95-9.75 72.95-13.9L72.95-13.9ZM95.5-13.8Q95.5-16.65 94.32-18.75 93.15-20.85 91.25-21.95 89.35-23.05 87.15-23.05L87.15-23.05Q84.95-23.05 83.05-21.98 81.15-20.9 79.97-18.82 78.8-16.75 78.8-13.9L78.8-13.9Q78.8-11.05 79.97-8.9 81.15-6.75 83.07-5.63 85-4.5 87.15-4.5L87.15-4.5Q89.35-4.5 91.25-5.6 93.15-6.7 94.32-8.83 95.5-10.95 95.5-13.8L95.5-13.8ZM132.34-27.55L119.64-13.75 132.34 0 124.64 0 114.44-11.85 114.44 0 108.74 0 108.74-37 114.44-37 114.44-15.5 124.44-27.55 132.34-27.55ZM155.69-27.55L161.39-27.55 161.39 0 155.69 0 155.69-3.25Q154.34-1.55 152.16-0.58 149.99 0.4 147.54 0.4L147.54 0.4Q144.29 0.4 141.72-0.95 139.14-2.3 137.66-4.95 136.19-7.6 136.19-11.35L136.19-11.35 136.19-27.55 141.84-27.55 141.84-12.2Q141.84-8.5 143.69-6.53 145.54-4.55 148.74-4.55L148.74-4.55Q151.94-4.55 153.81-6.53 155.69-8.5 155.69-12.2L155.69-12.2 155.69-27.55ZM168.89-37L174.59-37 174.59 0 168.89 0 168.89-37ZM180.18-13.9Q180.18-18.05 181.91-21.25 183.63-24.45 186.61-26.23 189.58-28 193.18-28L193.18-28Q196.43-28 198.86-26.73 201.28-25.45 202.73-23.55L202.73-23.55 202.73-27.55 208.48-27.55 208.48 0 202.73 0 202.73-4.1Q201.28-2.15 198.78-0.85 196.28 0.45 193.08 0.45L193.08 0.45Q189.53 0.45 186.58-1.38 183.63-3.2 181.91-6.48 180.18-9.75 180.18-13.9L180.18-13.9ZM202.73-13.8Q202.73-16.65 201.56-18.75 200.38-20.85 198.48-21.95 196.58-23.05 194.38-23.05L194.38-23.05Q192.18-23.05 190.28-21.98 188.38-20.9 187.21-18.82 186.03-16.75 186.03-13.9L186.03-13.9Q186.03-11.05 187.21-8.9 188.38-6.75 190.31-5.63 192.23-4.5 194.38-4.5L194.38-4.5Q196.58-4.5 198.48-5.6 200.38-6.7 201.56-8.83 202.73-10.95 202.73-13.8L202.73-13.8ZM240.28-24.4Q240.28-21.75 239.03-19.4 237.78-17.05 235.03-15.58 232.28-14.1 227.98-14.1L227.98-14.1 221.68-14.1 221.68 0 215.98 0 215.98-34.75 227.98-34.75Q231.98-34.75 234.76-33.38 237.53-32 238.91-29.65 240.28-27.3 240.28-24.4L240.28-24.4ZM227.98-18.75Q231.23-18.75 232.83-20.23 234.43-21.7 234.43-24.4L234.43-24.4Q234.43-30.1 227.98-30.1L227.98-30.1 221.68-30.1 221.68-18.75 227.98-18.75ZM257.68 0.45Q253.78 0.45 250.63-1.33 247.48-3.1 245.68-6.33 243.88-9.55 243.88-13.8L243.88-13.8Q243.88-18 245.73-21.25 247.58-24.5 250.78-26.25 253.98-28 257.93-28L257.93-28Q261.88-28 265.08-26.25 268.28-24.5 270.13-21.25 271.98-18 271.98-13.8L271.98-13.8Q271.98-9.6 270.08-6.35 268.18-3.1 264.9-1.33 261.63 0.45 257.68 0.45L257.68 0.45ZM257.68-4.5Q259.88-4.5 261.81-5.55 263.73-6.6 264.93-8.7 266.13-10.8 266.13-13.8L266.13-13.8Q266.13-16.8 264.98-18.88 263.83-20.95 261.93-22 260.03-23.05 257.83-23.05L257.83-23.05Q255.63-23.05 253.75-22 251.88-20.95 250.78-18.88 249.68-16.8 249.68-13.8L249.68-13.8Q249.68-9.35 251.95-6.93 254.23-4.5 257.68-4.5L257.68-4.5ZM280.53-31.2Q278.98-31.2 277.93-32.25 276.88-33.3 276.88-34.85L276.88-34.85Q276.88-36.4 277.93-37.45 278.98-38.5 280.53-38.5L280.53-38.5Q282.03-38.5 283.08-37.45 284.13-36.4 284.13-34.85L284.13-34.85Q284.13-33.3 283.08-32.25 282.03-31.2 280.53-31.2L280.53-31.2ZM277.63-27.55L283.33-27.55 283.33 0 277.63 0 277.63-27.55ZM304.72-28Q307.97-28 310.55-26.65 313.13-25.3 314.57-22.65 316.02-20 316.02-16.25L316.02-16.25 316.02 0 310.38 0 310.38-15.4Q310.38-19.1 308.52-21.08 306.68-23.05 303.47-23.05L303.47-23.05Q300.27-23.05 298.4-21.08 296.52-19.1 296.52-15.4L296.52-15.4 296.52 0 290.82 0 290.82-27.55 296.52-27.55 296.52-24.4Q297.93-26.1 300.1-27.05 302.27-28 304.72-28L304.72-28ZM336.62-22.9L329.92-22.9 329.92-7.65Q329.92-6.1 330.65-5.43 331.37-4.75 333.12-4.75L333.12-4.75 336.62-4.75 336.62 0 332.12 0Q328.27 0 326.22-1.8 324.17-3.6 324.17-7.65L324.17-7.65 324.17-22.9 320.92-22.9 320.92-27.55 324.17-27.55 324.17-34.4 329.92-34.4 329.92-27.55 336.62-27.55 336.62-22.9Z" opacity="1" transform="matrix(1,0,0,1,0,0)" fill="#000000" class="wordmark-text-0" data-fill-palette-color="primary" id="text-0"></path></svg></g></svg></g><g transform="matrix(1,0,0,1,0,56.876863089319)"><svg viewBox="0 0 395.52 28.436683010752695" height="28.436683010752695" width="395.52"><g transform="matrix(1,0,0,1,0,0)"><svg width="395.52" viewBox="-0.30000001192092896 -36.599998474121094 762.8999633789062 54.849998474121094" height="28.436683010752695" data-palette-color="#001f3f"><path d="M23.55-13.65L23.55-13.65Q19.2-8.8 14.85-5.5L14.85-5.5Q12.7-3.9 9.9-2.55 7.1-1.2 4.85-1.2L4.85-1.2Q-0.3-1.2-0.3-6.05L-0.3-6.05Q-0.3-10.6 1.9-15.33 4.1-20.05 7.53-23.75 10.95-27.45 14.9-30.43 18.85-33.4 22.53-35 26.2-36.6 28.7-36.6L28.7-36.6Q31.95-36.6 32.1-33.75L32.1-33.75Q33.85-34.5 34.75-34.5L34.75-34.5Q35.35-34.35 35.35-33.95 35.35-33.55 35.1-33.2 34.85-32.85 34.25-32.85 33.65-32.85 31.95-32.25L31.95-32.25Q31.25-28.25 27.25-24.7 23.25-21.15 20.7-21.15L20.7-21.15Q19.4-21.15 19.4-22.35L19.4-22.35Q19.4-24.65 23.05-27.88 26.7-31.1 30.8-33.15L30.8-33.15 30.8-33.2Q30.8-35.45 28.15-35.45L28.15-35.45Q26-35.45 22.7-33.98 19.4-32.5 15.83-29.73 12.25-26.95 9.13-23.48 6-20 3.98-15.48 1.95-10.95 1.95-6.5L1.95-6.5Q1.95-2.65 5.6-2.65L5.6-2.65Q13.55-2.65 27.4-19.2L27.4-19.2Q28.25-20.2 28.9-20.2 29.55-20.2 29.55-20.08 29.55-19.95 29.25-19.38 28.95-18.8 25.83-13.8 22.7-8.8 19.1-3.05L19.1-3.05Q9.8 11.95 9 13.15L9 13.15Q8.85 13.45 8.85 13.65 8.85 13.85 9.3 13.85L9.3 13.85 10.55 13.75Q10.95 13.75 10.95 13.9L10.95 13.9Q10.95 14.15 9.5 15 8.05 15.85 7.45 15.85 6.85 15.85 6.85 15.1 6.85 14.35 7.38 12.88 7.9 11.4 12.03 4.93 16.15-1.55 19.93-7.33 23.7-13.1 23.7-13.38 23.7-13.65 23.55-13.65ZM22-22.5L22-22.5Q23.85-22.5 26.9-25.35 29.95-28.2 30.65-31.7L30.65-31.7Q27.2-30.1 24.23-27.55 21.25-25 21.25-23.2L21.25-23.2Q21.25-22.5 22-22.5ZM59.82-3.5L59.82-3.5Q58.27-2.55 56.22-2.55L56.22-2.55 55.62-2.55Q54.27-1 52.74-0.03 51.22 0.95 50.12 0.95L50.12 0.95Q48.57 0.95 48.57-1.05 48.57-3.05 50.72-5.7L50.72-5.7Q50.52-6.25 50.52-7.05L50.52-7.05Q50.52-8.8 52.04-10.08 53.57-11.35 55.02-11.35L55.02-11.35Q58.07-11.35 58.07-8.05L58.07-8.05Q58.07-5.85 56.17-3.25L56.17-3.25 56.77-3.25Q58.37-3.25 59.52-4L59.52-4Q59.67-4.15 59.92-4.15 60.17-4.15 60.17-3.98 60.17-3.8 59.82-3.5ZM55.02-9.25L55.02-9.25Q55.27-9.35 55.42-9.35 55.57-9.35 55.57-9.13 55.57-8.9 55.02-8.5L55.02-8.5Q53.02-6.95 52.02-5.7L52.02-5.7Q53.12-3.95 55.37-3.4L55.37-3.4Q57.32-5.7 57.32-7.7L57.32-7.7Q57.32-8.85 56.57-9.45 55.82-10.05 54.64-10.05 53.47-10.05 52.47-9.38 51.47-8.7 51.47-7.93 51.47-7.15 51.62-6.7L51.62-6.7Q53.17-8.3 55.02-9.25ZM51.32-4.6L51.32-4.6Q50.52-3.25 50.52-1.6L50.52-1.6Q50.52-0.7 51.32-0.7L51.32-0.7Q52.67-0.7 54.67-2.7L54.67-2.7Q52.42-3.1 51.32-4.6ZM94.23-3.5L94.23-3.5Q92.68-2.55 90.63-2.55L90.63-2.55 90.03-2.55Q88.68-1 87.16-0.03 85.63 0.95 84.53 0.95L84.53 0.95Q82.98 0.95 82.98-1.05 82.98-3.05 85.13-5.7L85.13-5.7Q84.93-6.25 84.93-7.05L84.93-7.05Q84.93-8.8 86.46-10.08 87.98-11.35 89.43-11.35L89.43-11.35Q92.48-11.35 92.48-8.05L92.48-8.05Q92.48-5.85 90.58-3.25L90.58-3.25 91.18-3.25Q92.78-3.25 93.93-4L93.93-4Q94.08-4.15 94.33-4.15 94.58-4.15 94.58-3.98 94.58-3.8 94.23-3.5ZM89.43-9.25L89.43-9.25Q89.68-9.35 89.83-9.35 89.98-9.35 89.98-9.13 89.98-8.9 89.43-8.5L89.43-8.5Q87.43-6.95 86.43-5.7L86.43-5.7Q87.53-3.95 89.78-3.4L89.78-3.4Q91.73-5.7 91.73-7.7L91.73-7.7Q91.73-8.85 90.98-9.45 90.23-10.05 89.06-10.05 87.88-10.05 86.88-9.38 85.88-8.7 85.88-7.93 85.88-7.15 86.03-6.7L86.03-6.7Q87.58-8.3 89.43-9.25ZM85.73-4.6L85.73-4.6Q84.93-3.25 84.93-1.6L84.93-1.6Q84.93-0.7 85.73-0.7L85.73-0.7Q87.08-0.7 89.08-2.7L89.08-2.7Q86.83-3.1 85.73-4.6ZM126.35-4.7L126.35-4.7Q126-3.35 126-1.8 126-0.25 127.3-0.25L127.3-0.25Q127.65-0.25 128.47-0.63 129.3-1 129.42-1 129.55-1 129.55-0.9L129.55-0.9Q129.55-0.3 128.5 0.35 127.45 1 126.4 1L126.4 1Q124.3 1 124.3-1.8L124.3-1.8Q124.3-2.45 124.35-2.8L124.35-2.8Q120.35 0.7 118.22 0.7 116.1 0.7 116.1-0.75L116.1-0.75Q116.1-2.9 119.77-6.13 123.45-9.35 126.75-9.8L126.75-9.8Q129.6-15.65 133.77-20.75 137.95-25.85 140.2-25.85L140.2-25.85Q140.6-25.85 140.85-25.43 141.1-25 141.1-24.6L141.1-24.6Q141.1-22.95 136.22-16.3 131.35-9.65 126.35-4.7ZM139.25-23.85L139.25-23.85Q139.25-24.25 138.95-24.25L138.95-24.25Q138.1-24.25 135.72-21.45 133.35-18.65 130.75-14.33 128.15-10 126.9-6.4L126.9-6.4Q131.55-11.3 135.4-16.55 139.25-21.8 139.25-23.85ZM118.5-1.15L118.5-1.15Q118.5-0.4 119.35-0.4L119.35-0.4Q120.7-0.4 124.6-4.15L124.6-4.15Q125.25-6.45 126.15-8.4L126.15-8.4Q123.7-7.8 121.1-5.2 118.5-2.6 118.5-1.15ZM188.18-1.3L188.18-1.3Q190.43-1.25 191.33 0.05L191.33 0.05Q196.03-2.4 199.68-4.75L199.68-4.75Q199.73-4.6 199.73-4.3 199.73-4 199.28-3.8L199.28-3.8Q197.53-2.6 195.68-1.5 193.83-0.4 191.68 0.8L191.68 0.8Q191.83 1.3 191.83 2L191.83 2Q191.83 4.65 189.51 8.58 187.18 12.5 184.06 15.38 180.93 18.25 178.83 18.25L178.83 18.25Q177.88 18.25 177.88 16.75 177.88 15.25 183.13 5.1L183.13 5.1Q182.03 5.5 181.38 5.5L181.38 5.5Q179.58 5.5 179.58 4.45L179.58 4.45Q179.58 3.2 181.76 1.4 183.93-0.4 186.38-1.05L186.38-1.05Q191.98-11.2 197.23-18.48 202.48-25.75 205.23-25.75L205.23-25.75Q206.33-25.75 206.33-24.65L206.33-24.65Q206.33-23 205.11-20.7 203.88-18.4 202.08-16.18 200.28-13.95 198.06-11.6 195.83-9.25 194.03-7.58 192.23-5.9 190.83-4.63 189.43-3.35 189.38-3.3L189.38-3.3Q189.13-2.9 188.71-2.18 188.28-1.45 188.18-1.3ZM179.98 15.85L179.98 15.85Q179.98 16.4 180.33 16.4L180.33 16.4Q181.73 16.4 184.16 13.83 186.58 11.25 188.51 7.8 190.43 4.35 190.43 2.1L190.43 2.1Q190.43 1.7 190.38 1.5L190.38 1.5Q187.58 3.1 185.03 4.3L185.03 4.3Q179.98 13.55 179.98 15.85ZM204.53-23.4L204.53-23.4Q204.53-24 203.98-24L203.98-24Q203.03-23.95 199.13-18.43 195.23-12.9 190.58-5.3L190.58-5.3Q193.68-8.05 197.33-12.05L197.33-12.05Q204.53-19.85 204.53-23.4ZM182.93 1.33Q181.63 2.3 181.63 3 181.63 3.7 182.93 3.7L182.93 3.7Q183.13 3.7 183.93 3.5L183.93 3.5 185.88-0.1Q184.23 0.35 182.93 1.33ZM185.88 2.7L185.88 2.7Q187.13 2.2 190.13 0.65L190.13 0.65Q189.48-0.4 187.78-0.4L187.78-0.4 187.68-0.4Q187.33 0.2 186.73 1.25 186.13 2.3 185.88 2.7ZM233.15-3.5L233.15-3.5Q231.6-2.55 229.55-2.55L229.55-2.55 228.95-2.55Q227.6-1 226.07-0.03 224.55 0.95 223.45 0.95L223.45 0.95Q221.9 0.95 221.9-1.05 221.9-3.05 224.05-5.7L224.05-5.7Q223.85-6.25 223.85-7.05L223.85-7.05Q223.85-8.8 225.37-10.08 226.9-11.35 228.35-11.35L228.35-11.35Q231.4-11.35 231.4-8.05L231.4-8.05Q231.4-5.85 229.5-3.25L229.5-3.25 230.1-3.25Q231.7-3.25 232.85-4L232.85-4Q233-4.15 233.25-4.15 233.5-4.15 233.5-3.98 233.5-3.8 233.15-3.5ZM228.35-9.25L228.35-9.25Q228.6-9.35 228.75-9.35 228.9-9.35 228.9-9.13 228.9-8.9 228.35-8.5L228.35-8.5Q226.35-6.95 225.35-5.7L225.35-5.7Q226.45-3.95 228.7-3.4L228.7-3.4Q230.65-5.7 230.65-7.7L230.65-7.7Q230.65-8.85 229.9-9.45 229.15-10.05 227.97-10.05 226.8-10.05 225.8-9.38 224.8-8.7 224.8-7.93 224.8-7.15 224.95-6.7L224.95-6.7Q226.5-8.3 228.35-9.25ZM224.65-4.6L224.65-4.6Q223.85-3.25 223.85-1.6L223.85-1.6Q223.85-0.7 224.65-0.7L224.65-0.7Q226-0.7 228-2.7L228-2.7Q225.75-3.1 224.65-4.6ZM267.57-3.5L267.57-3.5Q266.02-2.55 263.97-2.55L263.97-2.55 263.37-2.55Q262.02-1 260.49-0.03 258.97 0.95 257.87 0.95L257.87 0.95Q256.32 0.95 256.32-1.05 256.32-3.05 258.47-5.7L258.47-5.7Q258.27-6.25 258.27-7.05L258.27-7.05Q258.27-8.8 259.79-10.08 261.32-11.35 262.77-11.35L262.77-11.35Q265.82-11.35 265.82-8.05L265.82-8.05Q265.82-5.85 263.92-3.25L263.92-3.25 264.52-3.25Q266.12-3.25 267.27-4L267.27-4Q267.42-4.15 267.67-4.15 267.92-4.15 267.92-3.98 267.92-3.8 267.57-3.5ZM262.77-9.25L262.77-9.25Q263.02-9.35 263.17-9.35 263.32-9.35 263.32-9.13 263.32-8.9 262.77-8.5L262.77-8.5Q260.77-6.95 259.77-5.7L259.77-5.7Q260.87-3.95 263.12-3.4L263.12-3.4Q265.07-5.7 265.07-7.7L265.07-7.7Q265.07-8.85 264.32-9.45 263.57-10.05 262.39-10.05 261.22-10.05 260.22-9.38 259.22-8.7 259.22-7.93 259.22-7.15 259.37-6.7L259.37-6.7Q260.92-8.3 262.77-9.25ZM259.07-4.6L259.07-4.6Q258.27-3.25 258.27-1.6L258.27-1.6Q258.27-0.7 259.07-0.7L259.07-0.7Q260.42-0.7 262.42-2.7L262.42-2.7Q260.17-3.1 259.07-4.6ZM299.68-4.7L299.68-4.7Q299.33-3.35 299.33-1.8 299.33-0.25 300.63-0.25L300.63-0.25Q300.98-0.25 301.81-0.63 302.63-1 302.76-1 302.88-1 302.88-0.9L302.88-0.9Q302.88-0.3 301.83 0.35 300.78 1 299.73 1L299.73 1Q297.63 1 297.63-1.8L297.63-1.8Q297.63-2.45 297.68-2.8L297.68-2.8Q293.68 0.7 291.56 0.7 289.43 0.7 289.43-0.75L289.43-0.75Q289.43-2.9 293.11-6.13 296.78-9.35 300.08-9.8L300.08-9.8Q302.93-15.65 307.11-20.75 311.28-25.85 313.53-25.85L313.53-25.85Q313.93-25.85 314.18-25.43 314.43-25 314.43-24.6L314.43-24.6Q314.43-22.95 309.56-16.3 304.68-9.65 299.68-4.7ZM312.58-23.85L312.58-23.85Q312.58-24.25 312.28-24.25L312.28-24.25Q311.43-24.25 309.06-21.45 306.68-18.65 304.08-14.33 301.48-10 300.23-6.4L300.23-6.4Q304.88-11.3 308.73-16.55 312.58-21.8 312.58-23.85ZM291.83-1.15L291.83-1.15Q291.83-0.4 292.68-0.4L292.68-0.4Q294.03-0.4 297.93-4.15L297.93-4.15Q298.58-6.45 299.48-8.4L299.48-8.4Q297.03-7.8 294.43-5.2 291.83-2.6 291.83-1.15ZM333.55-0.75Q333.55-0.2 333.07 0.3 332.6 0.8 332.02 0.8 331.45 0.8 331.17 0.55 330.9 0.3 330.87-0.3 330.85-0.9 331.4-1.3 331.95-1.7 332.45-1.7L332.45-1.7Q333.55-1.7 333.55-0.75L333.55-0.75ZM420.08-13.65L420.08-13.65Q415.73-8.8 411.38-5.5L411.38-5.5Q409.23-3.9 406.43-2.55 403.63-1.2 401.38-1.2L401.38-1.2Q396.23-1.2 396.23-6.05L396.23-6.05Q396.23-10.6 398.43-15.33 400.63-20.05 404.06-23.75 407.48-27.45 411.43-30.43 415.38-33.4 419.06-35 422.73-36.6 425.23-36.6L425.23-36.6Q428.48-36.6 428.63-33.75L428.63-33.75Q430.38-34.5 431.28-34.5L431.28-34.5Q431.88-34.35 431.88-33.95 431.88-33.55 431.63-33.2 431.38-32.85 430.78-32.85 430.18-32.85 428.48-32.25L428.48-32.25Q427.78-28.25 423.78-24.7 419.78-21.15 417.23-21.15L417.23-21.15Q415.93-21.15 415.93-22.35L415.93-22.35Q415.93-24.65 419.58-27.88 423.23-31.1 427.33-33.15L427.33-33.15 427.33-33.2Q427.33-35.45 424.68-35.45L424.68-35.45Q422.53-35.45 419.23-33.98 415.93-32.5 412.36-29.73 408.78-26.95 405.66-23.48 402.53-20 400.51-15.48 398.48-10.95 398.48-6.5L398.48-6.5Q398.48-2.65 402.13-2.65L402.13-2.65Q410.08-2.65 423.93-19.2L423.93-19.2Q424.78-20.2 425.43-20.2 426.08-20.2 426.08-20.08 426.08-19.95 425.78-19.38 425.48-18.8 422.36-13.8 419.23-8.8 415.63-3.05L415.63-3.05Q406.33 11.95 405.53 13.15L405.53 13.15Q405.38 13.45 405.38 13.65 405.38 13.85 405.83 13.85L405.83 13.85 407.08 13.75Q407.48 13.75 407.48 13.9L407.48 13.9Q407.48 14.15 406.03 15 404.58 15.85 403.98 15.85 403.38 15.85 403.38 15.1 403.38 14.35 403.91 12.88 404.43 11.4 408.56 4.93 412.68-1.55 416.46-7.33 420.23-13.1 420.23-13.38 420.23-13.65 420.08-13.65ZM418.53-22.5L418.53-22.5Q420.38-22.5 423.43-25.35 426.48-28.2 427.18-31.7L427.18-31.7Q423.73-30.1 420.76-27.55 417.78-25 417.78-23.2L417.78-23.2Q417.78-22.5 418.53-22.5ZM456.35-3.5L456.35-3.5Q454.8-2.55 452.75-2.55L452.75-2.55 452.15-2.55Q450.8-1 449.27-0.03 447.75 0.95 446.65 0.95L446.65 0.95Q445.1 0.95 445.1-1.05 445.1-3.05 447.25-5.7L447.25-5.7Q447.05-6.25 447.05-7.05L447.05-7.05Q447.05-8.8 448.57-10.08 450.1-11.35 451.55-11.35L451.55-11.35Q454.6-11.35 454.6-8.05L454.6-8.05Q454.6-5.85 452.7-3.25L452.7-3.25 453.3-3.25Q454.9-3.25 456.05-4L456.05-4Q456.2-4.15 456.45-4.15 456.7-4.15 456.7-3.98 456.7-3.8 456.35-3.5ZM451.55-9.25L451.55-9.25Q451.8-9.35 451.95-9.35 452.1-9.35 452.1-9.13 452.1-8.9 451.55-8.5L451.55-8.5Q449.55-6.95 448.55-5.7L448.55-5.7Q449.65-3.95 451.9-3.4L451.9-3.4Q453.85-5.7 453.85-7.7L453.85-7.7Q453.85-8.85 453.1-9.45 452.35-10.05 451.17-10.05 450-10.05 449-9.38 448-8.7 448-7.93 448-7.15 448.15-6.7L448.15-6.7Q449.7-8.3 451.55-9.25ZM447.85-4.6L447.85-4.6Q447.05-3.25 447.05-1.6L447.05-1.6Q447.05-0.7 447.85-0.7L447.85-0.7Q449.2-0.7 451.2-2.7L451.2-2.7Q448.95-3.1 447.85-4.6ZM490.77-3.5L490.77-3.5Q489.22-2.55 487.17-2.55L487.17-2.55 486.57-2.55Q485.22-1 483.69-0.03 482.17 0.95 481.07 0.95L481.07 0.95Q479.52 0.95 479.52-1.05 479.52-3.05 481.67-5.7L481.67-5.7Q481.47-6.25 481.47-7.05L481.47-7.05Q481.47-8.8 482.99-10.08 484.52-11.35 485.97-11.35L485.97-11.35Q489.02-11.35 489.02-8.05L489.02-8.05Q489.02-5.85 487.12-3.25L487.12-3.25 487.72-3.25Q489.32-3.25 490.47-4L490.47-4Q490.62-4.15 490.87-4.15 491.12-4.15 491.12-3.98 491.12-3.8 490.77-3.5ZM485.97-9.25L485.97-9.25Q486.22-9.35 486.37-9.35 486.52-9.35 486.52-9.13 486.52-8.9 485.97-8.5L485.97-8.5Q483.97-6.95 482.97-5.7L482.97-5.7Q484.07-3.95 486.32-3.4L486.32-3.4Q488.27-5.7 488.27-7.7L488.27-7.7Q488.27-8.85 487.52-9.45 486.77-10.05 485.59-10.05 484.42-10.05 483.42-9.38 482.42-8.7 482.42-7.93 482.42-7.15 482.57-6.7L482.57-6.7Q484.12-8.3 485.97-9.25ZM482.27-4.6L482.27-4.6Q481.47-3.25 481.47-1.6L481.47-1.6Q481.47-0.7 482.27-0.7L482.27-0.7Q483.62-0.7 485.62-2.7L485.62-2.7Q483.37-3.1 482.27-4.6ZM522.88-4.7L522.88-4.7Q522.53-3.35 522.53-1.8 522.53-0.25 523.83-0.25L523.83-0.25Q524.18-0.25 525.01-0.63 525.83-1 525.96-1 526.08-1 526.08-0.9L526.08-0.9Q526.08-0.3 525.03 0.35 523.98 1 522.93 1L522.93 1Q520.83 1 520.83-1.8L520.83-1.8Q520.83-2.45 520.88-2.8L520.88-2.8Q516.88 0.7 514.76 0.7 512.63 0.7 512.63-0.75L512.63-0.75Q512.63-2.9 516.31-6.13 519.98-9.35 523.28-9.8L523.28-9.8Q526.13-15.65 530.31-20.75 534.48-25.85 536.73-25.85L536.73-25.85Q537.13-25.85 537.38-25.43 537.63-25 537.63-24.6L537.63-24.6Q537.63-22.95 532.76-16.3 527.88-9.65 522.88-4.7ZM535.78-23.85L535.78-23.85Q535.78-24.25 535.48-24.25L535.48-24.25Q534.63-24.25 532.26-21.45 529.88-18.65 527.28-14.33 524.68-10 523.43-6.4L523.43-6.4Q528.08-11.3 531.93-16.55 535.78-21.8 535.78-23.85ZM515.03-1.15L515.03-1.15Q515.03-0.4 515.88-0.4L515.88-0.4Q517.23-0.4 521.13-4.15L521.13-4.15Q521.78-6.45 522.68-8.4L522.68-8.4Q520.23-7.8 517.63-5.2 515.03-2.6 515.03-1.15ZM585.61-8.1L585.61-8.1 584.36-7.75Q584.26-7.75 584.26-7.9L584.26-7.9Q584.26-8.35 585.39-9 586.51-9.65 587.21-9.65 587.91-9.65 587.91-6.65L587.91-6.65 587.61-1.8Q587.66-1.85 590.96-5.48 594.26-9.1 596.69-11.05 599.11-13 600.81-13L600.81-13Q601.56-12.95 601.56-12.48 601.56-12 600.66-11.25 599.76-10.5 599.29-10.5 598.81-10.5 598.71-10.7 598.61-10.9 598.24-10.9 597.86-10.9 597.04-10.38 596.21-9.85 594.99-8.65 593.76-7.45 592.66-6.28 591.56-5.1 589.64-3.03 587.71-0.95 586.26 0.55L586.26 0.55Q585.86 0.9 585.59 0.9 585.31 0.9 585.31 0.7L585.31 0.7Q586.06-3.15 586.06-6.9L586.06-6.9 586.06-7.85Q585.91-8.1 585.61-8.1ZM628.48-15.25L628.48-15.25Q629.23-15.25 629.23-14.5 629.23-13.75 628.53-12.98 627.83-12.2 626.98-12.2L626.98-12.2Q626.28-12.2 626.28-13.18 626.28-14.15 627.08-14.7 627.88-15.25 628.48-15.25ZM623.78-8.65L623.78-8.65Q624.03-9.05 624.48-9.05 624.93-9.05 625.38-8.6L625.38-8.6Q625.38-8.4 624.73-7.7 624.08-7 622.53-4.58 620.98-2.15 620.98-1.35L620.98-1.35Q620.98-0.85 621.73-0.75L621.73-0.75Q622.73-0.75 624.83-1.73 626.93-2.7 628.53-3.7L628.53-3.7 630.13-4.7Q630.18-4.6 630.18-4.3 630.18-4 629.73-3.8L629.73-3.8Q622.98 0.8 620.33 0.8L620.33 0.8Q619.03 0.8 619.03-0.5 619.03-1.8 620.46-4.13 621.88-6.45 623.78-8.65ZM666.05-7.8L666.05-7.8Q666.2-7.95 666.45-7.95 666.7-7.95 666.7-7.78 666.7-7.6 666.35-7.3L666.35-7.3Q664.1-5.8 660.6-5.25L660.6-5.25Q660.3-2.8 658.57-0.85 656.85 1.1 654.8 1.1L654.8 1.1Q653.1 1.1 653.1-1.3L653.1-1.3Q653.1-2.5 654.55-5.5L654.55-5.5Q651.8-6.4 651.8-8.85L651.8-8.85Q651.8-9.8 652.7-10.43 653.6-11.05 654.97-11.05 656.35-11.05 657.45-10.65L657.45-10.65Q661.5-17.2 666.2-22.48 670.9-27.75 673.45-27.75L673.45-27.75Q674.4-27.75 674.4-26.4L674.4-26.4Q674.4-24 669.92-18.68 665.45-13.35 660.1-8.4L660.1-8.4Q660.65-7.4 660.65-6.15L660.65-6.15 660.65-6Q664.15-6.5 666.05-7.8ZM659.65-9.1L659.65-9.1Q664.45-13.6 668.4-18.23 672.35-22.85 672.6-25.2L672.6-25.2Q672.55-26.3 671.95-26.3L671.95-26.3Q670.6-26.3 666.27-21.03 661.95-15.75 658.6-10.05L658.6-10.05Q659.1-9.75 659.65-9.1ZM659.55-5.1Q659-5.05 657.9-5.05 656.8-5.05 656.25-5.15L656.25-5.15Q656.05-4.95 655.95-4.9L655.95-4.9Q655-2.6 655-1.8L655-1.8Q655-0.55 655.9-0.55L655.9-0.55Q657.25-0.55 658.35-1.93 659.45-3.3 659.55-5.1L659.55-5.1ZM656.8-9.55L656.8-9.55Q655.65-10.15 654.65-10.15L654.65-10.15Q653.05-10.15 653.05-9.1L653.05-9.1Q653.05-7.1 655-6.3L655-6.3Q655.8-7.95 656.8-9.55ZM657.1-5.85L657.1-5.85Q657.45-5.8 658.25-5.8 659.05-5.8 659.5-5.85L659.5-5.85Q659.4-6.75 659-7.45L659-7.45Q658-6.5 657.1-5.85ZM658.55-8.1L658.55-8.1 657.9-8.8Q657.85-8.65 657.35-7.78 656.85-6.9 656.65-6.45L656.65-6.45Q657.3-6.95 658.55-8.1ZM691.26-4.85L691.26-4.85Q688.26-4.85 688.26-6.15L688.26-6.15Q688.26-7.7 691.81-9.83 695.36-11.95 698.21-11.95L698.21-11.95Q699.66-11.95 699.66-11.05L699.66-11.05Q699.66-10.55 698.91-9.95 698.16-9.35 697.46-9 696.76-8.65 696.66-8.65L696.66-8.65Q696.36-8.65 696.26-8.9L696.26-8.9Q696.16-9.25 696.79-9.63 697.41-10 697.41-10.45 697.41-10.9 696.29-10.9 695.16-10.9 692.76-9.33 690.36-7.75 690.36-6.75L690.36-6.75Q690.36-6 692.11-6L692.11-6Q692.41-6 693.21-6.05 694.01-6.1 694.01-5.85 694.01-5.6 691.54-4.05 689.06-2.5 689.06-1.4L689.06-1.4Q689.06-0.15 690.69-0.15 692.31-0.15 694.36-1L694.36-1Q697.66-2.45 700.36-4.1L700.36-4.1 701.31-4.7Q701.36-4.6 701.36-4.3 701.36-4 700.91-3.8L700.91-3.8Q698.26-2 695.11-0.38 691.96 1.25 689.44 1.25 686.91 1.25 686.91-0.43 686.91-2.1 691.26-4.85ZM726.98-5.45L726.98-5.45Q724.58-3.25 723.93-3.25L723.93-3.25Q723.73-3.25 723.73-3.45 723.73-3.65 723.88-3.8L723.88-3.8Q725.08-4.45 726.68-5.9L726.68-5.9Q726.43-6.5 726.43-7.2L726.43-7.2Q726.43-8.9 728.18-10.45 729.93-12 731.13-12L731.13-12Q731.78-12 731.78-11.38 731.78-10.75 729.78-8.35L729.78-8.35Q729.58-8.1 729.33-7.85 729.08-7.6 728.81-7.28 728.53-6.95 728.38-6.8L728.38-6.8Q728.63-6.55 729.28-5.93 729.93-5.3 730.33-4.9L730.33-4.9Q731.43-3.8 731.43-2.15 731.43-0.5 729.38 0.73 727.33 1.95 725.11 1.95 722.88 1.95 722.88 0.63 722.88-0.7 724.93-1.8 726.98-2.9 729.23-3.3L729.23-3.3Q728.93-3.7 728.11-4.35 727.28-5 726.98-5.45ZM729.58-2.7Q727.88-2.5 726.38-1.78 724.88-1.05 724.88-0.08 724.88 0.9 726.26 0.9 727.63 0.9 728.71 0.25 729.78-0.4 729.78-1.2 729.78-2 729.58-2.7L729.58-2.7ZM728.03-7.2L728.03-7.2 729.33-8.6Q730.63-10.15 730.63-10.48 730.63-10.8 730.33-10.8L730.33-10.8Q729.48-10.8 728.58-9.98 727.68-9.15 727.68-8.38 727.68-7.6 728.03-7.2ZM762.6-0.75Q762.6-0.2 762.12 0.3 761.65 0.8 761.07 0.8 760.5 0.8 760.22 0.55 759.95 0.3 759.92-0.3 759.9-0.9 760.45-1.3 761-1.7 761.5-1.7L761.5-1.7Q762.6-1.7 762.6-0.75L762.6-0.75Z" opacity="1" transform="matrix(1,0,0,1,0,0)" fill="#000000" class="slogan-text-1" data-fill-palette-color="secondary" id="text-1"></path></svg></g></svg></g></svg></g></svg></g><g transform="matrix(1,0,0,1,148.85075550944066,0)"><svg viewBox="0 0 97.81848898111869 117.90332071029908" height="117.90332071029908" width="97.81848898111869"><g><svg xmlns="http://www.w3.org/2000/svg" xmlns:xlink="http://www.w3.org/1999/xlink" version="1.1" x="0" y="0" viewBox="5.356387615203857 1.3222235441207886 39.28789138793945 47.35477828979492" enable-background="new 0 0 50 50" xml:space="preserve" height="117.90332071029908" width="97.81848898111869" class="icon-icon-0" data-fill-palette-color="accent" id="icon-0"><g fill="#374151" data-fill-palette-color="accent"><path fill-rule="evenodd" clip-rule="evenodd" fill="#000000" d="M44.104 11.163c0.779-0.705 0.704-1.413-0.15-2.119-4.348 0.819-31.488 11.599-32.084 13.682C22.578 18.858 33.359 15.03 44.104 11.163z" data-fill-palette-color="accent"></path><path fill-rule="evenodd" clip-rule="evenodd" fill="#000000" d="M36.52 2.613c-0.484-3.271-4.054 0.521-6.617 2.082-2.642 2.043-4.833 3.531-7.547 5.578-2.566 1.968-13.312 9.478-13.906 11.783L36.52 2.613z" data-fill-palette-color="accent"></path><path fill-rule="evenodd" clip-rule="evenodd" fill="#000000" d="M18.671 26.926c2.752-1.076 2.381-4.869 7.548-2.936 0.483 0.781 0 1.45-0.632 2.229 3.235-1.261 5.245-2.86 7.66 1.303 1.896-0.631 5.726 0.93 6.023-0.074-1.488-0.816-3.05-1.486-5.354-1.486-0.744-0.707-1.523-1.376-2.305-2.083-1.19-0.372-2.416-0.335-3.641 0.111-1.268-0.818-1.936-1.747-4.092-1.747-2.12 0-2.791 0.929-4.017 1.747-3.271 0-3.568 0.036-5.986 2.229-1.561 0.447-3.159 0.855-4.721 1.303 0.073 0.223 0.111 0.447 0.186 0.631 1.747-0.258 3.495-0.52 5.242-0.779C15.214 24.995 20.048 23.582 18.671 26.926z" data-fill-palette-color="accent"></path><path fill-rule="evenodd" clip-rule="evenodd" fill="#000000" d="M5.363 28.861c-0.224 8.625 5.279 16.691 11.079 19.816h16.917c0.036-0.113 5.986-5.133 7.434-7.734 1.637-3.014 3.05-7.732 3.05-12.082H5.363z" data-fill-palette-color="accent"></path></g></svg></g></svg></g><g></g></svg></g></svg></g></svg></g><defs></defs></svg><rect width="395.52" height="214.0796797204783" fill="none" stroke="none" visibility="hidden"></rect></g></svg></g></svg>